<svg xmlns="http://www.w3.org/2000/svg" viewBox="0 0 256 256" width="1024" height="1024">
  <defs>
    <linearGradient id="bg" x1="0" y1="0" x2="0" y2="1">
      <stop offset="0%" stop-color="#991b1b"/>
      <stop offset="100%" stop-color="#7f1d1d"/>
    </linearGradient>
  </defs>
  <rect width="256" height="256" fill="url(#bg)"/>
  <svg x="80" y="80" width="96" height="96" viewBox="0 0 24 24" fill="none" stroke="white" stroke-width="1.75" stroke-linecap="round" stroke-linejoin="round">
    <path d="M5.636 18.364a9 9 0 1 0 12.728 -12.728a9 9 0 0 0 -12.728 12.728" />
    <path d="M12.495 3.02a9 9 0 0 1 -9.475 9.475" />
    <path d="M20.98 11.505a9 9 0 0 0 -9.475 9.475" />
    <path d="M9 9l2 2" />
    <path d="M13 13l2 2" />
    <path d="M11 7l2 1" />
    <path d="M7 11l1 2" />
    <path d="M16 11l1 2" />
    <path d="M11 16l2 1" />
  </svg>
</svg>
