<svg xmlns="http://www.w3.org/2000/svg" viewBox="0 0 256 256" width="1024" height="1024">
  <defs>
    <linearGradient id="bg" x1="0" y1="0" x2="0" y2="1">
      <stop offset="0%" stop-color="#4338ca"/>
      <stop offset="100%" stop-color="#3730a3"/>
    </linearGradient>
  </defs>
  <rect width="256" height="256" fill="url(#bg)"/>
  <svg x="80" y="80" width="96" height="96" viewBox="0 0 24 24" fill="none" stroke="white" stroke-width="1.75" stroke-linecap="round" stroke-linejoin="round">
    <path d="M12 21a9 9 0 0 1 0 -18c4.97 0 9 3.582 9 8c0 1.06 -.474 2.078 -1.318 2.828c-.844 .75 -1.989 1.172 -3.182 1.172h-2.5a2 2 0 0 0 -1 3.75a1.3 1.3 0 0 1 -1 2.25" />
    <path d="M7.5 10.5a1 1 0 1 0 2 0a1 1 0 1 0 -2 0" />
    <path d="M11.5 7.5a1 1 0 1 0 2 0a1 1 0 1 0 -2 0" />
    <path d="M15.5 10.5a1 1 0 1 0 2 0a1 1 0 1 0 -2 0" />
  </svg>
</svg>
