<svg xmlns="http://www.w3.org/2000/svg" viewBox="0 0 256 256" width="1024" height="1024">
  <defs>
    <linearGradient id="bg" x1="0" y1="0" x2="0" y2="1">
      <stop offset="0%" stop-color="#78350f"/>
      <stop offset="100%" stop-color="#451a03"/>
    </linearGradient>
  </defs>
  <rect width="256" height="256" fill="url(#bg)"/>
  <svg x="80" y="80" width="96" height="96" viewBox="0 0 24 24" fill="none" stroke="white" stroke-width="1.75" stroke-linecap="round" stroke-linejoin="round">
    <path d="M15 9l-6 6" />
    <path d="M10 12l2 2" />
    <path d="M12 10l2 2" />
    <path d="M8 21a5 5 0 0 0 -5 -5" />
    <path d="M16 3c-7.18 0 -13 5.82 -13 13a5 5 0 0 0 5 5c7.18 0 13 -5.82 13 -13a5 5 0 0 0 -5 -5" />
    <path d="M16 3a5 5 0 0 0 5 5" />
  </svg>
</svg>
