<svg xmlns="http://www.w3.org/2000/svg" viewBox="0 0 256 256" width="1024" height="1024">
  <defs>
    <linearGradient id="bg" x1="0" y1="0" x2="0" y2="1">
      <stop offset="0%" stop-color="#115e59"/>
      <stop offset="100%" stop-color="#064e3b"/>
    </linearGradient>
  </defs>
  <rect width="256" height="256" fill="url(#bg)"/>
  <svg x="80" y="80" width="96" height="96" viewBox="0 0 24 24" fill="none" stroke="white" stroke-width="1.75" stroke-linecap="round" stroke-linejoin="round">
    <path d="M16 5l3 3l-2 1l4 4l-3 1l4 4h-9" />
    <path d="M15 21l0 -3" />
    <path d="M8 13l-2 -2" />
    <path d="M8 12l2 -2" />
    <path d="M8 21v-13" />
    <path d="M5.824 16a3 3 0 0 1 -2.743 -3.69a3 3 0 0 1 .304 -4.833a3 3 0 0 1 4.615 -3.707a3 3 0 0 1 4.614 3.707a3 3 0 0 1 .305 4.833a3 3 0 0 1 -2.919 3.695h-4l-.176 -.005" />
  </svg>
</svg>
