<svg xmlns="http://www.w3.org/2000/svg" viewBox="0 0 256 256" width="1024" height="1024">
  <defs>
    <linearGradient id="bg" x1="0" y1="0" x2="0" y2="1">
      <stop offset="0%" stop-color="#1e293b"/>
      <stop offset="100%" stop-color="#0f172a"/>
    </linearGradient>
  </defs>
  <rect width="256" height="256" fill="url(#bg)"/>
  <svg x="80" y="80" width="96" height="96" viewBox="0 0 24 24" fill="none" stroke="white" stroke-width="1.75" stroke-linecap="round" stroke-linejoin="round">
    <path d="M8 21l8 0" />
    <path d="M12 17l0 4" />
    <path d="M7 4l10 0" />
    <path d="M17 4v8a5 5 0 0 1 -10 0v-8" />
    <path d="M3 9a2 2 0 1 0 4 0a2 2 0 1 0 -4 0" />
    <path d="M17 9a2 2 0 1 0 4 0a2 2 0 1 0 -4 0" />
  </svg>
</svg>
