<svg xmlns="http://www.w3.org/2000/svg" viewBox="0 0 256 256" width="1024" height="1024">
  <defs>
    <linearGradient id="bg" x1="0" y1="0" x2="0" y2="1">
      <stop offset="0%" stop-color="#a16207"/>
      <stop offset="100%" stop-color="#854d0e"/>
    </linearGradient>
  </defs>
  <rect width="256" height="256" fill="url(#bg)"/>
  <svg x="80" y="80" width="96" height="96" viewBox="0 0 24 24" fill="none" stroke="white" stroke-width="1.75" stroke-linecap="round" stroke-linejoin="round">
    <path d="M3 12a9 9 0 1 0 18 0a9 9 0 1 0 -18 0" />
    <path d="M12 12a8 8 0 0 0 8 4" />
    <path d="M7.5 13.5a12 12 0 0 0 8.5 6.5" />
    <path d="M12 12a8 8 0 0 0 -7.464 4.928" />
    <path d="M12.951 7.353a12 12 0 0 0 -9.88 4.111" />
    <path d="M12 12a8 8 0 0 0 -.536 -8.928" />
    <path d="M15.549 15.147a12 12 0 0 0 1.38 -10.611" />
  </svg>
</svg>
